<svg xmlns="http://www.w3.org/2000/svg" xmlns:xlink="http://www.w3.org/1999/xlink" width="1920" zoomAndPan="magnify" viewBox="710 190 170 180" height="1080" preserveAspectRatio="xMidYMid meet" version="1.0"><defs><g/><clipPath id="b195ba3cd6"><path d="M 714 235 L 833 235 L 833 366 L 714 366 Z M 714 235 " clip-rule="nonzero"/></clipPath><clipPath id="060fd87868"><path d="M 711.851562 239.925781 L 794.457031 192.503906 L 868.015625 320.644531 L 785.410156 368.0625 Z M 711.851562 239.925781 " clip-rule="nonzero"/></clipPath><clipPath id="5970f17373"><path d="M 711.851562 239.925781 L 794.457031 192.503906 L 868.015625 320.644531 L 785.410156 368.0625 Z M 711.851562 239.925781 " clip-rule="nonzero"/></clipPath><clipPath id="b77a9519d9"><path d="M 711.867188 239.949219 L 794.796875 192.34375 L 868.425781 320.609375 L 785.496094 368.21875 Z M 711.867188 239.949219 " clip-rule="nonzero"/></clipPath><clipPath id="84137aa1a3"><rect x="0" width="271" y="0" height="381"/></clipPath></defs><g clip-path="url(#b195ba3cd6)"><g clip-path="url(#060fd87868)"><g clip-path="url(#5970f17373)"><g clip-path="url(#b77a9519d9)"><path fill="#004aad" d="M 826.503906 252.917969 L 723.101562 235.480469 C 715.3125 234.164062 711.289062 244.433594 717.894531 248.761719 L 762.238281 292.492188 C 764.183594 293.761719 765.402344 295.890625 765.519531 298.214844 L 780.925781 358.566406 C 781.332031 366.453125 792.226562 368.15625 795.023438 360.773438 L 832.109375 262.683594 C 833.730469 258.386719 831.03125 253.679688 826.503906 252.917969 " fill-opacity="1" fill-rule="nonzero"/></g></g></g></g><g transform="matrix(1, 0, 0, 1, 537, 255)"><g clip-path="url(#84137aa1a3)"><g fill="#0049ad" fill-opacity="1"><g transform="translate(24.541665, 292.14775)"><g><path d="M 18.921875 4.078125 L -4.921875 -57.078125 C 1.191406 -66.421875 9.453125 -72.847656 19.859375 -76.359375 C 30.265625 -79.867188 41.441406 -81.425781 53.390625 -81.03125 C 65.335938 -80.632812 76.953125 -79.191406 88.234375 -76.703125 C 99.515625 -74.222656 109.082031 -71.65625 116.9375 -69 C 129.207031 -64.820312 139.472656 -61.78125 147.734375 -59.875 C 155.992188 -57.96875 163.550781 -57.304688 170.40625 -57.890625 C 178.675781 -58.609375 185.425781 -61.09375 190.65625 -65.34375 C 195.882812 -69.601562 199.546875 -74.738281 201.640625 -80.75 C 203.742188 -86.769531 204.164062 -92.941406 202.90625 -99.265625 C 201.644531 -105.585938 198.535156 -111.269531 193.578125 -116.3125 C 188.628906 -121.363281 181.671875 -124.816406 172.703125 -126.671875 C 162.972656 -128.929688 152.425781 -128.972656 141.0625 -126.796875 C 129.707031 -124.628906 118.78125 -121.609375 108.28125 -117.734375 C 97.78125 -113.859375 88.75 -110.164062 81.1875 -106.65625 C 63.789062 -98.488281 48.171875 -95.296875 34.328125 -97.078125 C 20.484375 -98.859375 9.382812 -105.34375 1.03125 -116.53125 C -7.3125 -127.71875 -12.335938 -143.238281 -14.046875 -163.09375 C -15.078125 -175.15625 -13.789062 -187.234375 -10.1875 -199.328125 C -6.59375 -211.421875 -1.0625 -222.492188 6.40625 -232.546875 C 13.882812 -242.597656 22.988281 -250.941406 33.71875 -257.578125 C 44.457031 -264.210938 56.566406 -268.113281 70.046875 -269.28125 C 79.023438 -270.050781 88.429688 -270.023438 98.265625 -269.203125 C 108.109375 -268.378906 117.882812 -267.550781 127.59375 -266.71875 C 137.3125 -265.894531 146.421875 -265.847656 154.921875 -266.578125 C 163.222656 -267.046875 170.753906 -268.765625 177.515625 -271.734375 C 184.285156 -274.703125 189.773438 -279.46875 193.984375 -286.03125 L 217.84375 -224.5 C 211.75 -215.15625 203.488281 -208.785156 193.0625 -205.390625 C 182.632812 -201.992188 171.46875 -200.257812 159.5625 -200.1875 C 152.175781 -200.257812 144.21875 -201.476562 135.6875 -203.84375 C 127.15625 -206.21875 118.367188 -208.675781 109.328125 -211.21875 C 100.296875 -213.769531 91.457031 -215.445312 82.8125 -216.25 C 74.175781 -217.050781 65.941406 -215.929688 58.109375 -212.890625 C 49.359375 -209.515625 41.585938 -203.664062 34.796875 -195.34375 C 28.015625 -187.019531 22.972656 -177.832031 19.671875 -167.78125 C 16.367188 -157.726562 15.335938 -148.238281 16.578125 -139.3125 C 17.628906 -132.726562 20.695312 -128.9375 25.78125 -127.9375 C 30.863281 -126.945312 37.398438 -128.46875 45.390625 -132.5 C 55.898438 -137.675781 67.445312 -143.90625 80.03125 -151.1875 C 92.613281 -158.46875 105.535156 -165.296875 118.796875 -171.671875 C 132.066406 -178.054688 144.804688 -182.253906 157.015625 -184.265625 C 168.722656 -186.453125 178.84375 -185.707031 187.375 -182.03125 C 195.914062 -178.363281 203.015625 -172.722656 208.671875 -165.109375 C 214.335938 -157.503906 218.722656 -148.773438 221.828125 -138.921875 C 224.929688 -129.066406 226.921875 -119.0625 227.796875 -108.90625 C 230.046875 -77.1875 223.015625 -53.71875 206.703125 -38.5 C 190.398438 -23.289062 166.53125 -14.332031 135.09375 -11.625 C 126.101562 -10.851562 117.34375 -10.929688 108.8125 -11.859375 C 100.28125 -12.796875 91.800781 -13.796875 83.375 -14.859375 C 74.945312 -15.929688 66.476562 -16.097656 57.96875 -15.359375 C 49.925781 -14.671875 42.457031 -12.894531 35.5625 -10.03125 C 28.664062 -7.175781 23.117188 -2.472656 18.921875 4.078125 Z M 18.921875 4.078125 "/></g></g></g></g></g></svg>